<svg width="62" height="62" fill="none" stroke="#000000" stroke-linecap="round" stroke-linejoin="round" stroke-width="1.5" viewBox="0 0 24 24" xmlns="http://www.w3.org/2000/svg">
 <path d="M9.5 10a3.5 3.5 0 1 0 0-7 3.5 3.5 0 0 0 0 7Z"></path>
 <path d="M16 11h6"></path>
 <path d="M16 8h6"></path>
 <path d="M17.5 6.5v6"></path>
 <path d="M20.5 6.5v6"></path>
 <path d="M2 20.4v.6h15v-.6c0-2.24 0-3.36-.436-4.216a4 4 0 0 0-1.748-1.748C13.96 14 12.84 14 10.6 14H8.4c-2.24 0-3.36 0-4.216.436a4 4 0 0 0-1.748 1.748C2 17.04 2 18.16 2 20.4Z"></path>
</svg>